<mxfile host="app.diagrams.net" modified="2023-09-15T11:16:41.858Z" agent="Mozilla/5.0 (Macintosh; Intel Mac OS X 10_15_7) AppleWebKit/605.1.15 (KHTML, like Gecko) Version/17.0 Safari/605.1.15" etag="h6Fx_KfPAgfqfZKler33" version="21.7.5" type="google">
  <diagram name="Page-1" id="tBmm6bo1TSMakv8kMNEh">
    <mxGraphModel grid="1" page="0" gridSize="10" guides="1" tooltips="1" connect="1" arrows="1" fold="1" pageScale="1" pageWidth="827" pageHeight="1169" math="0" shadow="0">
      <root>
        <mxCell id="0" />
        <mxCell id="1" parent="0" />
        <mxCell id="wBEcXqAQ5tXRlXFstUbo-6" value="" style="edgeStyle=orthogonalEdgeStyle;rounded=0;orthogonalLoop=1;jettySize=auto;html=1;" edge="1" parent="1" source="wBEcXqAQ5tXRlXFstUbo-1" target="wBEcXqAQ5tXRlXFstUbo-2">
          <mxGeometry relative="1" as="geometry" />
        </mxCell>
        <mxCell id="wBEcXqAQ5tXRlXFstUbo-1" value="movePlayer(String direction) &lt;br&gt;start" style="ellipse;whiteSpace=wrap;html=1;" vertex="1" parent="1">
          <mxGeometry x="270" y="-150" width="170" height="80" as="geometry" />
        </mxCell>
        <mxCell id="wBEcXqAQ5tXRlXFstUbo-7" value="" style="edgeStyle=orthogonalEdgeStyle;rounded=0;orthogonalLoop=1;jettySize=auto;html=1;" edge="1" parent="1" source="wBEcXqAQ5tXRlXFstUbo-2" target="wBEcXqAQ5tXRlXFstUbo-3">
          <mxGeometry relative="1" as="geometry" />
        </mxCell>
        <mxCell id="wBEcXqAQ5tXRlXFstUbo-23" style="edgeStyle=orthogonalEdgeStyle;rounded=0;orthogonalLoop=1;jettySize=auto;html=1;exitX=1;exitY=0.5;exitDx=0;exitDy=0;entryX=0.5;entryY=0;entryDx=0;entryDy=0;" edge="1" parent="1" source="wBEcXqAQ5tXRlXFstUbo-2" target="wBEcXqAQ5tXRlXFstUbo-12">
          <mxGeometry relative="1" as="geometry" />
        </mxCell>
        <mxCell id="wBEcXqAQ5tXRlXFstUbo-29" value="True" style="edgeLabel;html=1;align=center;verticalAlign=middle;resizable=0;points=[];" connectable="0" vertex="1" parent="wBEcXqAQ5tXRlXFstUbo-23">
          <mxGeometry x="-0.88" relative="1" as="geometry">
            <mxPoint as="offset" />
          </mxGeometry>
        </mxCell>
        <mxCell id="wBEcXqAQ5tXRlXFstUbo-2" value="case &lt;br&gt;&quot;W&quot;&lt;br&gt;OR&lt;br&gt;&quot;UP&quot;" style="rhombus;whiteSpace=wrap;html=1;" vertex="1" parent="1">
          <mxGeometry x="300" y="-50" width="110" height="110" as="geometry" />
        </mxCell>
        <mxCell id="wBEcXqAQ5tXRlXFstUbo-8" value="" style="edgeStyle=orthogonalEdgeStyle;rounded=0;orthogonalLoop=1;jettySize=auto;html=1;" edge="1" parent="1" source="wBEcXqAQ5tXRlXFstUbo-3" target="wBEcXqAQ5tXRlXFstUbo-4">
          <mxGeometry relative="1" as="geometry" />
        </mxCell>
        <mxCell id="wBEcXqAQ5tXRlXFstUbo-24" style="edgeStyle=orthogonalEdgeStyle;rounded=0;orthogonalLoop=1;jettySize=auto;html=1;exitX=1;exitY=0.5;exitDx=0;exitDy=0;entryX=0.5;entryY=0;entryDx=0;entryDy=0;" edge="1" parent="1" source="wBEcXqAQ5tXRlXFstUbo-3" target="wBEcXqAQ5tXRlXFstUbo-13">
          <mxGeometry relative="1" as="geometry" />
        </mxCell>
        <mxCell id="wBEcXqAQ5tXRlXFstUbo-30" value="True" style="edgeLabel;html=1;align=center;verticalAlign=middle;resizable=0;points=[];" connectable="0" vertex="1" parent="wBEcXqAQ5tXRlXFstUbo-24">
          <mxGeometry x="-0.8643" y="-3" relative="1" as="geometry">
            <mxPoint y="-3" as="offset" />
          </mxGeometry>
        </mxCell>
        <mxCell id="wBEcXqAQ5tXRlXFstUbo-3" value="case &lt;br&gt;&quot;S&quot;&lt;br&gt;OR&lt;br&gt;&quot;DOWN&quot;" style="rhombus;whiteSpace=wrap;html=1;" vertex="1" parent="1">
          <mxGeometry x="300" y="80" width="110" height="110" as="geometry" />
        </mxCell>
        <mxCell id="wBEcXqAQ5tXRlXFstUbo-9" value="" style="edgeStyle=orthogonalEdgeStyle;rounded=0;orthogonalLoop=1;jettySize=auto;html=1;" edge="1" parent="1" source="wBEcXqAQ5tXRlXFstUbo-4" target="wBEcXqAQ5tXRlXFstUbo-5">
          <mxGeometry relative="1" as="geometry" />
        </mxCell>
        <mxCell id="wBEcXqAQ5tXRlXFstUbo-25" style="edgeStyle=orthogonalEdgeStyle;rounded=0;orthogonalLoop=1;jettySize=auto;html=1;exitX=1;exitY=0.5;exitDx=0;exitDy=0;entryX=0.5;entryY=0;entryDx=0;entryDy=0;" edge="1" parent="1" source="wBEcXqAQ5tXRlXFstUbo-4" target="wBEcXqAQ5tXRlXFstUbo-14">
          <mxGeometry relative="1" as="geometry" />
        </mxCell>
        <mxCell id="wBEcXqAQ5tXRlXFstUbo-31" value="True" style="edgeLabel;html=1;align=center;verticalAlign=middle;resizable=0;points=[];" connectable="0" vertex="1" parent="wBEcXqAQ5tXRlXFstUbo-25">
          <mxGeometry x="-0.7579" y="1" relative="1" as="geometry">
            <mxPoint x="-3" y="1" as="offset" />
          </mxGeometry>
        </mxCell>
        <mxCell id="wBEcXqAQ5tXRlXFstUbo-4" value="case &lt;br&gt;&quot;A&quot;&lt;br&gt;OR&lt;br&gt;&quot;LEFT&quot;" style="rhombus;whiteSpace=wrap;html=1;" vertex="1" parent="1">
          <mxGeometry x="300" y="210" width="110" height="110" as="geometry" />
        </mxCell>
        <mxCell id="wBEcXqAQ5tXRlXFstUbo-11" value="" style="edgeStyle=orthogonalEdgeStyle;rounded=0;orthogonalLoop=1;jettySize=auto;html=1;" edge="1" parent="1" source="wBEcXqAQ5tXRlXFstUbo-5" target="wBEcXqAQ5tXRlXFstUbo-10">
          <mxGeometry relative="1" as="geometry" />
        </mxCell>
        <mxCell id="wBEcXqAQ5tXRlXFstUbo-26" style="edgeStyle=orthogonalEdgeStyle;rounded=0;orthogonalLoop=1;jettySize=auto;html=1;exitX=1;exitY=0.5;exitDx=0;exitDy=0;entryX=0.5;entryY=0;entryDx=0;entryDy=0;" edge="1" parent="1" source="wBEcXqAQ5tXRlXFstUbo-5" target="wBEcXqAQ5tXRlXFstUbo-15">
          <mxGeometry relative="1" as="geometry" />
        </mxCell>
        <mxCell id="wBEcXqAQ5tXRlXFstUbo-32" value="True" style="edgeLabel;html=1;align=center;verticalAlign=middle;resizable=0;points=[];" connectable="0" vertex="1" parent="wBEcXqAQ5tXRlXFstUbo-26">
          <mxGeometry x="-0.7091" y="2" relative="1" as="geometry">
            <mxPoint x="4" y="2" as="offset" />
          </mxGeometry>
        </mxCell>
        <mxCell id="wBEcXqAQ5tXRlXFstUbo-5" value="case &lt;br&gt;&quot;D&quot;&lt;br&gt;OR&lt;br&gt;&quot;RIGHT&quot;" style="rhombus;whiteSpace=wrap;html=1;" vertex="1" parent="1">
          <mxGeometry x="300" y="340" width="110" height="110" as="geometry" />
        </mxCell>
        <mxCell id="wBEcXqAQ5tXRlXFstUbo-43" style="edgeStyle=orthogonalEdgeStyle;rounded=0;orthogonalLoop=1;jettySize=auto;html=1;exitX=1;exitY=0.5;exitDx=0;exitDy=0;entryX=0.5;entryY=0;entryDx=0;entryDy=0;" edge="1" parent="1" source="wBEcXqAQ5tXRlXFstUbo-10" target="wBEcXqAQ5tXRlXFstUbo-42">
          <mxGeometry relative="1" as="geometry" />
        </mxCell>
        <mxCell id="wBEcXqAQ5tXRlXFstUbo-44" value="True" style="edgeLabel;html=1;align=center;verticalAlign=middle;resizable=0;points=[];" connectable="0" vertex="1" parent="wBEcXqAQ5tXRlXFstUbo-43">
          <mxGeometry x="-0.4963" y="-1" relative="1" as="geometry">
            <mxPoint as="offset" />
          </mxGeometry>
        </mxCell>
        <mxCell id="wBEcXqAQ5tXRlXFstUbo-10" value="default" style="rhombus;whiteSpace=wrap;html=1;" vertex="1" parent="1">
          <mxGeometry x="300" y="470" width="110" height="110" as="geometry" />
        </mxCell>
        <mxCell id="wBEcXqAQ5tXRlXFstUbo-36" value="" style="edgeStyle=orthogonalEdgeStyle;rounded=0;orthogonalLoop=1;jettySize=auto;html=1;" edge="1" parent="1" source="wBEcXqAQ5tXRlXFstUbo-12" target="wBEcXqAQ5tXRlXFstUbo-16">
          <mxGeometry relative="1" as="geometry" />
        </mxCell>
        <mxCell id="wBEcXqAQ5tXRlXFstUbo-41" value="True" style="edgeLabel;html=1;align=center;verticalAlign=middle;resizable=0;points=[];" connectable="0" vertex="1" parent="wBEcXqAQ5tXRlXFstUbo-36">
          <mxGeometry x="0.0097" relative="1" as="geometry">
            <mxPoint as="offset" />
          </mxGeometry>
        </mxCell>
        <mxCell id="wBEcXqAQ5tXRlXFstUbo-12" value="playerY &amp;gt; 0" style="rhombus;whiteSpace=wrap;html=1;" vertex="1" parent="1">
          <mxGeometry x="680" y="30" width="110" height="110" as="geometry" />
        </mxCell>
        <mxCell id="wBEcXqAQ5tXRlXFstUbo-35" value="" style="edgeStyle=orthogonalEdgeStyle;rounded=0;orthogonalLoop=1;jettySize=auto;html=1;" edge="1" parent="1" source="wBEcXqAQ5tXRlXFstUbo-13" target="wBEcXqAQ5tXRlXFstUbo-17">
          <mxGeometry relative="1" as="geometry" />
        </mxCell>
        <mxCell id="wBEcXqAQ5tXRlXFstUbo-38" value="True" style="edgeLabel;html=1;align=center;verticalAlign=middle;resizable=0;points=[];" connectable="0" vertex="1" parent="wBEcXqAQ5tXRlXFstUbo-35">
          <mxGeometry x="-0.4563" y="3" relative="1" as="geometry">
            <mxPoint x="11" y="3" as="offset" />
          </mxGeometry>
        </mxCell>
        <mxCell id="wBEcXqAQ5tXRlXFstUbo-13" value="playerY &amp;lt; worldHeight - 1" style="rhombus;whiteSpace=wrap;html=1;" vertex="1" parent="1">
          <mxGeometry x="600" y="170" width="110" height="110" as="geometry" />
        </mxCell>
        <mxCell id="wBEcXqAQ5tXRlXFstUbo-34" value="" style="edgeStyle=orthogonalEdgeStyle;rounded=0;orthogonalLoop=1;jettySize=auto;html=1;" edge="1" parent="1" source="wBEcXqAQ5tXRlXFstUbo-14" target="wBEcXqAQ5tXRlXFstUbo-18">
          <mxGeometry relative="1" as="geometry" />
        </mxCell>
        <mxCell id="wBEcXqAQ5tXRlXFstUbo-39" value="True" style="edgeLabel;html=1;align=center;verticalAlign=middle;resizable=0;points=[];" connectable="0" vertex="1" parent="wBEcXqAQ5tXRlXFstUbo-34">
          <mxGeometry x="-0.049" y="-1" relative="1" as="geometry">
            <mxPoint as="offset" />
          </mxGeometry>
        </mxCell>
        <mxCell id="wBEcXqAQ5tXRlXFstUbo-14" value="playerX &amp;gt; 0" style="rhombus;whiteSpace=wrap;html=1;" vertex="1" parent="1">
          <mxGeometry x="520" y="290" width="110" height="110" as="geometry" />
        </mxCell>
        <mxCell id="wBEcXqAQ5tXRlXFstUbo-33" value="" style="edgeStyle=orthogonalEdgeStyle;rounded=0;orthogonalLoop=1;jettySize=auto;html=1;" edge="1" parent="1" source="wBEcXqAQ5tXRlXFstUbo-15" target="wBEcXqAQ5tXRlXFstUbo-19">
          <mxGeometry relative="1" as="geometry" />
        </mxCell>
        <mxCell id="wBEcXqAQ5tXRlXFstUbo-40" value="True" style="edgeLabel;html=1;align=center;verticalAlign=middle;resizable=0;points=[];" connectable="0" vertex="1" parent="wBEcXqAQ5tXRlXFstUbo-33">
          <mxGeometry x="-0.049" relative="1" as="geometry">
            <mxPoint as="offset" />
          </mxGeometry>
        </mxCell>
        <mxCell id="wBEcXqAQ5tXRlXFstUbo-15" value="playerX &amp;lt; worldWidth - 1" style="rhombus;whiteSpace=wrap;html=1;" vertex="1" parent="1">
          <mxGeometry x="440" y="420" width="110" height="110" as="geometry" />
        </mxCell>
        <mxCell id="wBEcXqAQ5tXRlXFstUbo-16" value="playerY--" style="shape=parallelogram;html=1;strokeWidth=2;perimeter=parallelogramPerimeter;whiteSpace=wrap;rounded=1;arcSize=12;size=0.23;" vertex="1" parent="1">
          <mxGeometry x="840" y="55" width="100" height="60" as="geometry" />
        </mxCell>
        <mxCell id="wBEcXqAQ5tXRlXFstUbo-17" value="playerY++" style="shape=parallelogram;html=1;strokeWidth=2;perimeter=parallelogramPerimeter;whiteSpace=wrap;rounded=1;arcSize=12;size=0.23;" vertex="1" parent="1">
          <mxGeometry x="760" y="195" width="100" height="60" as="geometry" />
        </mxCell>
        <mxCell id="wBEcXqAQ5tXRlXFstUbo-18" value="playerX--" style="shape=parallelogram;html=1;strokeWidth=2;perimeter=parallelogramPerimeter;whiteSpace=wrap;rounded=1;arcSize=12;size=0.23;" vertex="1" parent="1">
          <mxGeometry x="680" y="315" width="100" height="60" as="geometry" />
        </mxCell>
        <mxCell id="wBEcXqAQ5tXRlXFstUbo-19" value="playerX++" style="shape=parallelogram;html=1;strokeWidth=2;perimeter=parallelogramPerimeter;whiteSpace=wrap;rounded=1;arcSize=12;size=0.23;" vertex="1" parent="1">
          <mxGeometry x="600" y="445" width="100" height="60" as="geometry" />
        </mxCell>
        <mxCell id="wBEcXqAQ5tXRlXFstUbo-42" value="break" style="rounded=1;whiteSpace=wrap;html=1;absoluteArcSize=1;arcSize=14;strokeWidth=2;" vertex="1" parent="1">
          <mxGeometry x="410" y="580" width="65" height="40" as="geometry" />
        </mxCell>
      </root>
    </mxGraphModel>
  </diagram>
</mxfile>
